<?xml version="1.0" encoding="UTF-8" standalone="no"?>
<!-- Created with Inkscape (http://www.inkscape.org/) -->

<svg
   width="128"
   height="128"
   viewBox="0 0 128 128.00001"
   version="1.1"
   id="svg1"
   sodipodi:docname="icon.svg"
   inkscape:version="1.3 (0e150ed6c4, 2023-07-21)"
   inkscape:export-filename="icon-32.png"
   inkscape:export-xdpi="24"
   inkscape:export-ydpi="24"
   xmlns:inkscape="http://www.inkscape.org/namespaces/inkscape"
   xmlns:sodipodi="http://sodipodi.sourceforge.net/DTD/sodipodi-0.dtd"
   xmlns="http://www.w3.org/2000/svg"
   xmlns:svg="http://www.w3.org/2000/svg">
  <sodipodi:namedview
     id="namedview1"
     pagecolor="#505050"
     bordercolor="#eeeeee"
     borderopacity="1"
     inkscape:showpageshadow="0"
     inkscape:pageopacity="0"
     inkscape:pagecheckerboard="true"
     inkscape:deskcolor="#d1d1d1"
     inkscape:document-units="mm"
     showguides="true"
     inkscape:zoom="4.0587261"
     inkscape:cx="120.60434"
     inkscape:cy="72.806095"
     inkscape:window-width="3440"
     inkscape:window-height="1377"
     inkscape:window-x="-8"
     inkscape:window-y="-8"
     inkscape:window-maximized="1"
     inkscape:current-layer="layer1">
    <sodipodi:guide
       position="41.63021,87.232786"
       orientation="1,0"
       id="guide1"
       inkscape:locked="false" />
    <sodipodi:guide
       position="118.3698,62.66792"
       orientation="1,0"
       id="guide2"
       inkscape:locked="false" />
    <sodipodi:guide
       position="80.000003,97.005734"
       orientation="0,-1"
       id="guide3"
       inkscape:locked="false" />
    <sodipodi:guide
       position="80.001045,37.340104"
       orientation="0,-1"
       id="guide4"
       inkscape:locked="false" />
  </sodipodi:namedview>
  <defs
     id="defs1" />
  <g
     inkscape:label="Layer 1"
     inkscape:groupmode="layer"
     id="layer1">
    <path
       d="M 36.933595,18.816407 V 48.781252 H 4.7031252 V 118.64258 H 75.785159 V 94.251957 h 46.341801 v -75.43555 z"
       style="fill:#ff7800;stroke-width:1.88976;stroke-linecap:square"
       id="path6" />
    <path
       id="path1"
       style="stroke-width:1"
       d="m 42.15691,4.2929689 c -5.58437,0 -10.1543,4.5699334 -10.1543,10.1542971 V 42.13672 H 8.62956 c -4.75102,0 -8.62889999999,3.878916 -8.62889999999,8.628907 v 64.312503 c 0,4.74998 3.87787999999,8.62891 8.62889999999,8.62891 h 64.31641 c 4.75,0 8.62891,-3.87789 8.62891,-8.62891 v -14.78711 h 36.26953 c 5.58435,0 10.15625,-4.572938 10.15625,-10.156251 V 14.447266 c 0,-5.5843637 -4.5719,-10.1542971 -10.15625,-10.1542971 z M 41.62956,22.51172 h 76.74024 v 8.482422 51.54883 c 0,4.466658 -3.65052,8.117188 -8.11719,8.117188 H 49.7487 c -4.46873,0 -8.11914,-3.65053 -8.11914,-8.117188 V 30.994142 Z M 8.17839,54.86719 h 23.82422 v 8.480469 26.78711 c 0,5.583313 4.56993,10.156251 10.1543,10.156251 h 31.24023 v 8.33789 c 0,3.79896 -3.1064,6.90234 -6.90429,6.90234 H 15.08073 c -3.79894,0 -6.90234,-3.10442 -6.90234,-6.90234 V 63.347659 Z" />
    <path
       fill-rule="evenodd"
       clip-rule="evenodd"
       d="m 101.90693,79.707428 3.85059,-8.74654 4.63918,0.153374 V 88.135363 H 80.000252 49.603302 V 71.114262 l 3.38156,-0.153872 5.41546,8.747038 z M 71.193842,74.102005 h 17.08839 V 56.773667 H 103.65288 L 79.753872,33.518814 55.821712,56.773667 h 15.37164 v 17.328338 z"
       id="path1-3"
       style="stroke-width:0.999999" />
  </g>
</svg>
